<svg id="Layer_1" data-name="Layer 1" xmlns="http://www.w3.org/2000/svg" xmlns:xlink="http://www.w3.org/1999/xlink" viewBox="0 0 256 128" shape-rendering="geometricPrecision"><defs><style>.cls-1{fill:url(#linear-gradient);}.cls-2{fill:url(#linear-gradient-2);}.cls-3{fill:url(#linear-gradient-3);}.cls-4{fill:url(#linear-gradient-4);}</style><linearGradient id="linear-gradient" x1="22.91" y1="37.69" x2="107.92" y2="37.52" gradientUnits="userSpaceOnUse"><stop offset="0" stop-color="#216f31"/><stop offset="1" stop-color="#c1d89d"/></linearGradient><linearGradient id="linear-gradient-2" x1="22.94" y1="37.51" x2="92.02" y2="37.37" xlink:href="#linear-gradient"/><linearGradient id="linear-gradient-3" x1="85.85" y1="-7.34" x2="45.19" y2="66.84" gradientTransform="translate(24.84 52.53) rotate(-0.99)" xlink:href="#linear-gradient"/><linearGradient id="linear-gradient-4" x1="65.8" y1="192.35" x2="31.28" y2="255.32" gradientTransform="translate(256.55 142.52) rotate(118.85)" xlink:href="#linear-gradient"/></defs><path class="cls-1" d="M73.41,56.09l34.09,0L89.19,24.23a10.77,10.77,0,0,0-9.1-5.17H78.93a5.46,5.46,0,0,0-5.52,5.46Z"/><path class="cls-2" d="M57.2,56.11v-32A5.28,5.28,0,0,0,52,18.79H51a10.75,10.75,0,0,0-9.41,5.38l-18.47,32,34.09,0Z"/><path class="cls-3" d="M53.38,109.22,96.11,36.11l18.68,32.05A10.75,10.75,0,0,1,114.67,79L99.74,104a10.8,10.8,0,0,1-9.06,5.24Z"/><path class="cls-4" d="M34.62,36.06,65.13,89.11,53.38,109.22l-13.63-.1a10.76,10.76,0,0,1-9.35-5.49L16.17,78.25a10.75,10.75,0,0,1,0-10.47Z"/><path d="M130.62,75.48a1.66,1.66,0,0,1-.58-.11,1.51,1.51,0,0,1-.5-.31,1.71,1.71,0,0,1-.37-.5,1.64,1.64,0,0,1-.14-.67V61.19a1.59,1.59,0,0,1,1.59-1.56h4.76a7.28,7.28,0,0,1,2.37.4,5.58,5.58,0,0,1,2.13,1.33,6.89,6.89,0,0,1,1.53,2.46,12.32,12.32,0,0,1,0,7.47,6.84,6.84,0,0,1-1.53,2.45,5.49,5.49,0,0,1-2.13,1.34,7.28,7.28,0,0,1-2.37.4Zm.79-13.74V73.37h3.51A4.93,4.93,0,0,0,137,73a3.92,3.92,0,0,0,1.47-1.17,5,5,0,0,0,.86-1.83,10.51,10.51,0,0,0,0-4.82,5.17,5.17,0,0,0-.86-1.83A3.9,3.9,0,0,0,137,62.15a4.78,4.78,0,0,0-2.07-.41Z"/><path d="M146.14,75.22a5,5,0,0,1-1.75-1.16,5.23,5.23,0,0,1-1.17-1.85,7.86,7.86,0,0,1,0-5.07,5.4,5.4,0,0,1,1.17-1.87,5,5,0,0,1,1.75-1.16,6.25,6.25,0,0,1,4.4,0,4.91,4.91,0,0,1,1.76,1.16,5.4,5.4,0,0,1,1.17,1.87,7.86,7.86,0,0,1,0,5.07,5.23,5.23,0,0,1-1.17,1.85,4.91,4.91,0,0,1-1.76,1.16,6.25,6.25,0,0,1-4.4,0Zm5.38-7.46a3.8,3.8,0,0,0-.71-1.31,2.83,2.83,0,0,0-1.09-.76,3.77,3.77,0,0,0-2.75,0,2.76,2.76,0,0,0-1.09.76,3.64,3.64,0,0,0-.71,1.31,6.39,6.39,0,0,0-.26,1.91,6.23,6.23,0,0,0,.26,1.9,3.64,3.64,0,0,0,.71,1.31,2.87,2.87,0,0,0,1.09.76,3.91,3.91,0,0,0,2.75,0,3,3,0,0,0,1.09-.76,3.8,3.8,0,0,0,.71-1.31,6.23,6.23,0,0,0,.26-1.9A6.39,6.39,0,0,0,151.52,67.76Z"/><path d="M166.76,75.16a1.44,1.44,0,0,1-.93.32,1.37,1.37,0,0,1-.92-.32,1.82,1.82,0,0,1-.53-.85l-1.95-7.09-2,7.09a1.82,1.82,0,0,1-.53.85,1.36,1.36,0,0,1-.9.32,1.43,1.43,0,0,1-.94-.32,1.69,1.69,0,0,1-.54-.85l-3-9.08a.83.83,0,0,1-.06-.34,1.81,1.81,0,0,1,0-.29,1.26,1.26,0,0,1,.15-.34.9.9,0,0,1,.32-.29,1,1,0,0,1,.54-.12,1.09,1.09,0,0,1,.63.19.88.88,0,0,1,.39.53l2.45,8.18,2-7.54a2,2,0,0,1,.48-.83,1.12,1.12,0,0,1,.87-.35,1.15,1.15,0,0,1,.87.34,2.06,2.06,0,0,1,.48.84l2,7.54,2.47-8.18a.87.87,0,0,1,.38-.53,1.06,1.06,0,0,1,.62-.19,1,1,0,0,1,.32,0,1,1,0,0,1,.35.17.9.9,0,0,1,.29.32,1.06,1.06,0,0,1,.11.5.83.83,0,0,1-.06.34l-3,9.08A1.77,1.77,0,0,1,166.76,75.16Z"/><path d="M178.37,64.06a3.72,3.72,0,0,1,1.24.63,3,3,0,0,1,.86,1,3,3,0,0,1,.32,1.44v7.24a1,1,0,0,1-.31.75,1,1,0,0,1-.75.31,1,1,0,0,1-.74-.31,1.06,1.06,0,0,1-.31-.75v-7a1.51,1.51,0,0,0-.21-.79,1.87,1.87,0,0,0-.54-.58,2.68,2.68,0,0,0-.74-.36,3,3,0,0,0-.82-.12,2.92,2.92,0,0,0-1.2.24,2.6,2.6,0,0,0-.92.63,3,3,0,0,0-.57,1,3.6,3.6,0,0,0-.2,1.2v5.83a1.05,1.05,0,0,1-.3.75,1,1,0,0,1-.74.31,1.06,1.06,0,0,1-1.07-1.06V64.91a1.06,1.06,0,0,1,1.07-1.06,1,1,0,0,1,.74.31,1.05,1.05,0,0,1,.3.75v.36l.49-.43a4.08,4.08,0,0,1,.72-.47,4.56,4.56,0,0,1,1-.37,5.22,5.22,0,0,1,2.71.06Z"/><path d="M184.61,74.42a1.05,1.05,0,0,1-.3.75,1,1,0,0,1-.74.31,1,1,0,0,1-.76-.31,1.06,1.06,0,0,1-.31-.75V60.67a1,1,0,0,1,.31-.74,1.06,1.06,0,0,1,.76-.3,1,1,0,0,1,1,1Z"/><path d="M189.28,75.22a5,5,0,0,1-1.75-1.16,5.23,5.23,0,0,1-1.17-1.85,7.86,7.86,0,0,1,0-5.07,5.4,5.4,0,0,1,1.17-1.87,5,5,0,0,1,1.75-1.16,6.25,6.25,0,0,1,4.4,0,4.91,4.91,0,0,1,1.76,1.16,5.4,5.4,0,0,1,1.17,1.87,7.86,7.86,0,0,1,0,5.07,5.23,5.23,0,0,1-1.17,1.85,4.91,4.91,0,0,1-1.76,1.16,6.25,6.25,0,0,1-4.4,0Zm5.38-7.46a3.8,3.8,0,0,0-.71-1.31,2.83,2.83,0,0,0-1.09-.76,3.77,3.77,0,0,0-2.75,0,2.76,2.76,0,0,0-1.09.76,3.64,3.64,0,0,0-.71,1.31,6.39,6.39,0,0,0-.26,1.91,6.23,6.23,0,0,0,.26,1.9,3.64,3.64,0,0,0,.71,1.31,2.87,2.87,0,0,0,1.09.76,3.91,3.91,0,0,0,2.75,0,3,3,0,0,0,1.09-.76,3.8,3.8,0,0,0,.71-1.31,6.23,6.23,0,0,0,.26-1.9A6.39,6.39,0,0,0,194.66,67.76Z"/><path d="M200.13,67.29a.84.84,0,0,1-.43.11,1.15,1.15,0,0,1-.74-.26.84.84,0,0,1-.34-.72,1.18,1.18,0,0,1,.1-.44,4.2,4.2,0,0,1,.48-.84,2.89,2.89,0,0,1,.81-.73,4.21,4.21,0,0,1,1.27-.51,7.43,7.43,0,0,1,1.84-.19,5.81,5.81,0,0,1,3.26.81,2.7,2.7,0,0,1,1.22,2.4v7.5a1.05,1.05,0,0,1-.3.75,1,1,0,0,1-.75.31,1.06,1.06,0,0,1-1.06-1.06v-.33a3.82,3.82,0,0,1-1.74,1.11,7.32,7.32,0,0,1-2.06.28,5.15,5.15,0,0,1-1.38-.19,4.06,4.06,0,0,1-1.24-.59,3.08,3.08,0,0,1-.89-1,2.84,2.84,0,0,1-.35-1.44,3.06,3.06,0,0,1,1.41-2.7,5.1,5.1,0,0,1,1.48-.64,11.7,11.7,0,0,1,1.76-.32,13.66,13.66,0,0,0,1.66-.27,3.14,3.14,0,0,0,.91-.35.86.86,0,0,0,.37-.47,2,2,0,0,0,.07-.58,1,1,0,0,0-.22-.66,1.8,1.8,0,0,0-.56-.46,2.71,2.71,0,0,0-.77-.28,3.88,3.88,0,0,0-.82-.09,4.67,4.67,0,0,0-1.17.12,2.18,2.18,0,0,0-.72.33,1.47,1.47,0,0,0-.45.48,4.63,4.63,0,0,0-.31.58A.77.77,0,0,1,200.13,67.29ZM205,69.85a5.06,5.06,0,0,1-.9.19c-.34,0-.69.08-1.06.14s-.73.12-1.08.2a3.39,3.39,0,0,0-.94.35,2,2,0,0,0-.68.59,1.65,1.65,0,0,0-.25.93,1.39,1.39,0,0,0,.19.73,1.47,1.47,0,0,0,.5.46,1.9,1.9,0,0,0,.68.24,3.91,3.91,0,0,0,.76.07,5.18,5.18,0,0,0,1.17-.13,3.27,3.27,0,0,0,1.05-.43,2.36,2.36,0,0,0,.77-.8,2.51,2.51,0,0,0,.29-1.25V69.71Z"/><path d="M216.23,74.82a3.44,3.44,0,0,1-1.58.6,8.32,8.32,0,0,1-1.06.06,4.22,4.22,0,0,1-1.86-.42,4.63,4.63,0,0,1-1.53-1.2,5.86,5.86,0,0,1-1-1.84,6.78,6.78,0,0,1-.39-2.35,7.73,7.73,0,0,1,.35-2.36,5.53,5.53,0,0,1,1-1.85,4.4,4.4,0,0,1,1.52-1.19,4.52,4.52,0,0,1,2-.42,4.31,4.31,0,0,1,1.42.2,4,4,0,0,1,1,.47,3.23,3.23,0,0,1,.63.53c.15.18.27.3.33.38V60.67a1,1,0,0,1,.3-.74,1,1,0,0,1,.75-.3,1.05,1.05,0,0,1,.75.3,1,1,0,0,1,.31.74V74.42A1.06,1.06,0,0,1,218,75.48a1,1,0,0,1-.75-.31,1.05,1.05,0,0,1-.3-.75v-.19C216.71,74.46,216.46,74.66,216.23,74.82ZM211,71.2a4.19,4.19,0,0,0,.63,1.31,3.27,3.27,0,0,0,1,.9,2.6,2.6,0,0,0,1.35.34,2.67,2.67,0,0,0,1.36-.34,3.27,3.27,0,0,0,1-.9,4.16,4.16,0,0,0,.61-1.31,5.68,5.68,0,0,0,0-3.06,4.27,4.27,0,0,0-.61-1.31,3.07,3.07,0,0,0-1-.91,2.67,2.67,0,0,0-1.36-.35,2.61,2.61,0,0,0-1.35.35,3.07,3.07,0,0,0-1,.91,4.3,4.3,0,0,0-.63,1.31,5.68,5.68,0,0,0,0,3.06Z"/><path d="M222.75,70.3s0,.13,0,.33a5,5,0,0,0,.14.69,5.43,5.43,0,0,0,.32.86,3.23,3.23,0,0,0,.57.83,3.15,3.15,0,0,0,.9.63,3,3,0,0,0,1.29.25,4.75,4.75,0,0,0,1.07-.1,2.44,2.44,0,0,0,.78-.3,2.52,2.52,0,0,0,.63-.51,8.12,8.12,0,0,0,.56-.73.88.88,0,0,1,.78-.45,1,1,0,0,1,.67.26.86.86,0,0,1,.3.67,1.8,1.8,0,0,1-.26.72,3.8,3.8,0,0,1-.84,1,5.28,5.28,0,0,1-1.48.84,6,6,0,0,1-2.21.36,5.64,5.64,0,0,1-2.37-.48,5.21,5.21,0,0,1-1.76-1.3,5.63,5.63,0,0,1-1.08-1.9,6.88,6.88,0,0,1-.37-2.27,7.14,7.14,0,0,1,.38-2.32,5.51,5.51,0,0,1,1.1-1.9,5.16,5.16,0,0,1,4-1.74,6.45,6.45,0,0,1,2.14.34,5.08,5.08,0,0,1,1.73,1,4.68,4.68,0,0,1,1.16,1.6,5.25,5.25,0,0,1,.42,2.15,1.55,1.55,0,0,1-.36,1.12,1.13,1.13,0,0,1-.85.39Zm1.89-4.65a3.09,3.09,0,0,0-.88.56,2.75,2.75,0,0,0-.55.73,5.76,5.76,0,0,0-.3.74,2.64,2.64,0,0,0-.12.6c0,.16,0,.26,0,.29h6.51a3.62,3.62,0,0,0-.2-1.19,3,3,0,0,0-.61-1,3.11,3.11,0,0,0-1.06-.7,4.08,4.08,0,0,0-1.51-.26A3.38,3.38,0,0,0,224.64,65.65Z"/><path d="M234.6,74.42a1.05,1.05,0,0,1-.3.75,1.05,1.05,0,0,1-1.49,0,1,1,0,0,1-.32-.75V64.91a1,1,0,0,1,.32-.75,1.05,1.05,0,0,1,1.49,0,1.05,1.05,0,0,1,.3.75v.38c.06-.05.16-.16.31-.32a3.94,3.94,0,0,1,.55-.49,3.62,3.62,0,0,1,.74-.44,2.05,2.05,0,0,1,.88-.19,1.06,1.06,0,0,1,1.06,1.06,1,1,0,0,1-.31.73,1,1,0,0,1-.75.32,2,2,0,0,0-1.25.35,2.57,2.57,0,0,0-.75.83,3.16,3.16,0,0,0-.37,1,4.48,4.48,0,0,0-.11.86Z"/><path d="M130,91.18a1.2,1.2,0,0,1-.45-.09,1,1,0,0,1-.38-.24,1.39,1.39,0,0,1-.28-.38,1.19,1.19,0,0,1-.1-.51V80.25a1.11,1.11,0,0,1,.35-.84,1.16,1.16,0,0,1,.86-.36h4.44a4.1,4.1,0,0,1,1.5.25,3.18,3.18,0,0,1,1.1.67,2.63,2.63,0,0,1,.67,1A3.14,3.14,0,0,1,138,82.2a2.87,2.87,0,0,1-.17,1,2.52,2.52,0,0,1-.41.74,2.27,2.27,0,0,1-.57.51,2.4,2.4,0,0,1-.64.28,3.9,3.9,0,0,1,1.08.55A2.79,2.79,0,0,1,138,86a2.73,2.73,0,0,1,.37.86,4.13,4.13,0,0,1,.11.92,3.1,3.1,0,0,1-.31,1.37,3.46,3.46,0,0,1-.84,1.06,3.75,3.75,0,0,1-1.24.69,4.55,4.55,0,0,1-1.53.25Zm.6-10.51v3.42h3.61A2.36,2.36,0,0,0,135,84a1.93,1.93,0,0,0,.65-.35,1.79,1.79,0,0,0,.45-.53,1.5,1.5,0,0,0,.16-.7,1.68,1.68,0,0,0-.47-1.24,1.88,1.88,0,0,0-1.39-.48Zm0,4.94v4h3.75a2.34,2.34,0,0,0,1.73-.5,2.13,2.13,0,0,0-.19-2.9,2.71,2.71,0,0,0-1.77-.55Z"/><path d="M142.28,91l-3.54-7.59a.89.89,0,0,1,0-.61.87.87,0,0,1,.14-.27.83.83,0,0,1,.24-.21.8.8,0,0,1,.36-.08.83.83,0,0,1,.48.15.82.82,0,0,1,.33.4l2.68,6.43,2.33-6.35a1.17,1.17,0,0,1,.33-.45.79.79,0,0,1,.5-.18.84.84,0,0,1,.54.21,1,1,0,0,1,.25.8.75.75,0,0,1,0,.16l-3.53,9.09c-.08.21-.18.42-.29.64a2,2,0,0,1-.41.59,1.89,1.89,0,0,1-.65.43,2.29,2.29,0,0,1-1,.17h-.74a.73.73,0,0,1-.51-.2.7.7,0,0,1-.21-.52.72.72,0,0,1,.21-.52.7.7,0,0,1,.51-.22H141a1,1,0,0,0,.32-.09.76.76,0,0,0,.29-.23,1.36,1.36,0,0,0,.24-.47Z"/><path d="M153.06,91.18a1.12,1.12,0,0,1-.44-.09,1.15,1.15,0,0,1-.39-.24,1.23,1.23,0,0,1-.38-.89V80.25a1.15,1.15,0,0,1,.35-.84,1.18,1.18,0,0,1,.86-.36h4.45a4,4,0,0,1,1.49.25,3.09,3.09,0,0,1,1.1.67,2.66,2.66,0,0,1,.68,1A3.32,3.32,0,0,1,161,82.2a2.88,2.88,0,0,1-.16,1,2.8,2.8,0,0,1-.42.74,2.27,2.27,0,0,1-.57.51,2.49,2.49,0,0,1-.63.28,3.7,3.7,0,0,1,1.07.55A2.79,2.79,0,0,1,161,86a2.52,2.52,0,0,1,.37.86,4.13,4.13,0,0,1,.11.92,3,3,0,0,1-.31,1.37,3.28,3.28,0,0,1-.83,1.06,3.8,3.8,0,0,1-1.25.69,4.55,4.55,0,0,1-1.53.25Zm.6-10.51v3.42h3.62A2.45,2.45,0,0,0,158,84a2,2,0,0,0,.64-.35,1.54,1.54,0,0,0,.45-.53,1.51,1.51,0,0,0,.17-.7,1.69,1.69,0,0,0-.48-1.24,1.87,1.87,0,0,0-1.38-.48Zm0,4.94v4h3.75a2.34,2.34,0,0,0,1.73-.5,1.83,1.83,0,0,0,.49-1.36,1.89,1.89,0,0,0-.67-1.54,2.76,2.76,0,0,0-1.78-.55Z"/><path d="M164,87.21a2,2,0,0,0,0,.26,2.79,2.79,0,0,0,.11.53,3.49,3.49,0,0,0,.24.65,2.44,2.44,0,0,0,.44.64,2.18,2.18,0,0,0,1.67.67,3.92,3.92,0,0,0,.82-.07,2.27,2.27,0,0,0,.6-.23,2.22,2.22,0,0,0,.47-.4,3.9,3.9,0,0,0,.44-.56.74.74,0,0,1,.27-.26.71.71,0,0,1,.32-.07.75.75,0,0,1,.51.19.68.68,0,0,1,.23.51,1.29,1.29,0,0,1-.2.56,2.46,2.46,0,0,1-.64.73,4,4,0,0,1-1.13.65,4.64,4.64,0,0,1-1.69.27,4.36,4.36,0,0,1-1.81-.36,4,4,0,0,1-1.34-1,4.07,4.07,0,0,1-.83-1.45,5.28,5.28,0,0,1-.29-1.73,5.49,5.49,0,0,1,.29-1.78,4.42,4.42,0,0,1,.84-1.45,4,4,0,0,1,1.32-1,4,4,0,0,1,1.72-.36,5.06,5.06,0,0,1,1.63.26,3.91,3.91,0,0,1,1.32.76,3.57,3.57,0,0,1,.89,1.23,4.07,4.07,0,0,1,.32,1.64,1.17,1.17,0,0,1-.28.86.82.82,0,0,1-.64.29Zm1.44-3.55a2.34,2.34,0,0,0-.67.43,1.76,1.76,0,0,0-.42.56,3.5,3.5,0,0,0-.23.56,2.45,2.45,0,0,0-.09.46c0,.13,0,.2,0,.22h5a2.76,2.76,0,0,0-.15-.91,2.3,2.3,0,0,0-.47-.76,2.38,2.38,0,0,0-.81-.53,3.11,3.11,0,0,0-1.15-.2A2.55,2.55,0,0,0,165.42,83.66Z"/><path d="M176.78,82.44a2.86,2.86,0,0,1,.95.49,2.41,2.41,0,0,1,.66.79,2.45,2.45,0,0,1,.24,1.11v5.53a.78.78,0,0,1-.23.58.81.81,0,0,1-1.15,0,.82.82,0,0,1-.23-.58V85a1.13,1.13,0,0,0-.16-.61,1.61,1.61,0,0,0-.41-.45,1.87,1.87,0,0,0-.57-.27,2.28,2.28,0,0,0-.63-.09,2.32,2.32,0,0,0-.92.18,2.18,2.18,0,0,0-.7.48,2.14,2.14,0,0,0-.43.73,2.51,2.51,0,0,0-.16.92v4.45a.82.82,0,0,1-.23.58.75.75,0,0,1-.57.24.76.76,0,0,1-.57-.24.78.78,0,0,1-.24-.58V83.09a.78.78,0,0,1,.24-.57.76.76,0,0,1,.57-.24.75.75,0,0,1,.57.24.81.81,0,0,1,.23.57v.28l.38-.33a2.82,2.82,0,0,1,.54-.36,3.66,3.66,0,0,1,.75-.28,3.58,3.58,0,0,1,1-.12A3.66,3.66,0,0,1,176.78,82.44Z"/><path d="M182.43,82.48h.85a.69.69,0,0,1,.5.21.7.7,0,0,1,.2.5.69.69,0,0,1-.2.5.68.68,0,0,1-.5.2h-.85v6.47a.82.82,0,0,1-.81.82.75.75,0,0,1-.57-.24.78.78,0,0,1-.23-.58V83.89h-.57a.7.7,0,0,1-.71-.7.72.72,0,0,1,.71-.71h.57V80.56a.74.74,0,0,1,.23-.57.78.78,0,0,1,.57-.23.81.81,0,0,1,.57.23.75.75,0,0,1,.24.57Z"/><path d="M186.61,90.36a.82.82,0,0,1-.23.58.75.75,0,0,1-.57.24.8.8,0,0,1-.58-.24.82.82,0,0,1-.23-.58V79.85a.81.81,0,0,1,.23-.57.83.83,0,0,1,.58-.23.78.78,0,0,1,.57.23.81.81,0,0,1,.23.57Z"/><path d="M189.41,87.21a2,2,0,0,0,0,.26,3.88,3.88,0,0,0,.11.53,4.38,4.38,0,0,0,.24.65,2.71,2.71,0,0,0,.44.64,2.36,2.36,0,0,0,.69.48,2.27,2.27,0,0,0,1,.19,3.81,3.81,0,0,0,.81-.07,2,2,0,0,0,.6-.23,2.55,2.55,0,0,0,.48-.4,4.77,4.77,0,0,0,.43-.56.74.74,0,0,1,.27-.26.75.75,0,0,1,.33-.07.75.75,0,0,1,.5.19.64.64,0,0,1,.23.51,1.29,1.29,0,0,1-.2.56,2.56,2.56,0,0,1-.63.73,4.31,4.31,0,0,1-1.13.65,4.68,4.68,0,0,1-1.69.27,4.41,4.41,0,0,1-1.82-.36,4,4,0,0,1-1.34-1,4.07,4.07,0,0,1-.83-1.45,5.37,5.37,0,0,1,0-3.51,4.23,4.23,0,0,1,.83-1.45,4.14,4.14,0,0,1,1.32-1,4,4,0,0,1,1.72-.36,5.17,5.17,0,0,1,1.64.26,4.11,4.11,0,0,1,1.32.76,3.68,3.68,0,0,1,.88,1.23,3.9,3.9,0,0,1,.32,1.64,1.22,1.22,0,0,1-.27.86.85.85,0,0,1-.65.29Zm1.44-3.55a2.34,2.34,0,0,0-.67.43,1.76,1.76,0,0,0-.42.56,3.5,3.5,0,0,0-.23.56,2.45,2.45,0,0,0-.09.46c0,.13,0,.2,0,.22h5a2.76,2.76,0,0,0-.15-.91,2.3,2.3,0,0,0-.47-.76,2.38,2.38,0,0,0-.81-.53,3.11,3.11,0,0,0-1.15-.2A2.55,2.55,0,0,0,190.85,83.66Z"/><path d="M200.07,91l-3.53-7.59a.76.76,0,0,1,0-.61.84.84,0,0,1,.13-.27,1.21,1.21,0,0,1,.24-.21.8.8,0,0,1,.36-.08.86.86,0,0,1,.49.15.82.82,0,0,1,.33.4l2.67,6.43,2.34-6.35a1,1,0,0,1,.33-.45.77.77,0,0,1,.5-.18.88.88,0,0,1,.54.21.79.79,0,0,1,.26.65.77.77,0,0,1,0,.15.75.75,0,0,1,0,.16l-3.54,9.09c-.08.21-.18.42-.28.64a2.26,2.26,0,0,1-.42.59,1.85,1.85,0,0,1-.64.43,2.32,2.32,0,0,1-1,.17h-.74a.69.69,0,0,1-.72-.72.75.75,0,0,1,.2-.52.71.71,0,0,1,.52-.22h.77a.9.9,0,0,0,.32-.09.76.76,0,0,0,.29-.23,1.36,1.36,0,0,0,.25-.47Z"/><path d="M213.32,80.78a3.44,3.44,0,0,0-1.18.94,4.48,4.48,0,0,0-.79,1.47,6,6,0,0,0-.29,1.92,6.14,6.14,0,0,0,.29,1.92,4.7,4.7,0,0,0,.79,1.47,3.47,3.47,0,0,0,1.18,1,3.24,3.24,0,0,0,1.44.33,3.12,3.12,0,0,0,1.19-.21,3.22,3.22,0,0,0,.9-.54,3,3,0,0,0,.63-.76,4.67,4.67,0,0,0,.39-.86.7.7,0,0,1,.32-.44,1.05,1.05,0,0,1,.49-.13,1.08,1.08,0,0,1,.66.23.76.76,0,0,1,.31.65,2.44,2.44,0,0,1-.28,1,4.21,4.21,0,0,1-.86,1.22A5.14,5.14,0,0,1,217,91a5.91,5.91,0,0,1-4.66-.08,5,5,0,0,1-1.72-1.4,6,6,0,0,1-1-2,8.1,8.1,0,0,1,0-4.71,6,6,0,0,1,1-2,5.1,5.1,0,0,1,1.72-1.39,5.29,5.29,0,0,1,2.42-.52,4.71,4.71,0,0,1,2,.4,5.81,5.81,0,0,1,1.55,1,4.47,4.47,0,0,1,1,1.19,2.28,2.28,0,0,1,.36,1.09.76.76,0,0,1-.31.65,1,1,0,0,1-.66.24,1,1,0,0,1-.49-.13.68.68,0,0,1-.32-.44,4.23,4.23,0,0,0-.39-.84,3,3,0,0,0-.63-.76,3.22,3.22,0,0,0-.9-.54,3.12,3.12,0,0,0-1.19-.21A3.24,3.24,0,0,0,213.32,80.78Z"/><path d="M222.13,84.92a.8.8,0,0,1-.33.08.92.92,0,0,1-.57-.2.66.66,0,0,1-.26-.55.79.79,0,0,1,.08-.34,3.15,3.15,0,0,1,.36-.64,2.3,2.3,0,0,1,.63-.56,3.56,3.56,0,0,1,1-.39,5.75,5.75,0,0,1,1.41-.15,4.47,4.47,0,0,1,2.5.62,2.08,2.08,0,0,1,.93,1.84v5.73a.82.82,0,0,1-.23.58.82.82,0,0,1-1.39-.58v-.24a2.87,2.87,0,0,1-1.32.84,5.48,5.48,0,0,1-1.58.22,3.81,3.81,0,0,1-1-.15,3.14,3.14,0,0,1-1-.45,2.39,2.39,0,0,1-.68-.77,2.28,2.28,0,0,1-.26-1.11,2.43,2.43,0,0,1,.29-1.23,2.51,2.51,0,0,1,.79-.83,4,4,0,0,1,1.13-.49,9.11,9.11,0,0,1,1.34-.24,9.69,9.69,0,0,0,1.28-.21,2.6,2.6,0,0,0,.69-.27.66.66,0,0,0,.28-.35,1.64,1.64,0,0,0,.05-.45.84.84,0,0,0-.16-.51,1.39,1.39,0,0,0-.44-.35,2.33,2.33,0,0,0-.58-.21,3.38,3.38,0,0,0-.63-.07,3.12,3.12,0,0,0-.89.1,1.65,1.65,0,0,0-.55.24,1.23,1.23,0,0,0-.35.37,3.21,3.21,0,0,0-.24.45A.6.6,0,0,1,222.13,84.92Zm3.71,2a3,3,0,0,1-.68.14l-.82.11c-.28,0-.55.09-.82.15a3.37,3.37,0,0,0-.72.27,1.45,1.45,0,0,0-.52.46,1.18,1.18,0,0,0-.19.7,1,1,0,0,0,.15.56,1.06,1.06,0,0,0,.37.36,1.74,1.74,0,0,0,.53.18,2.86,2.86,0,0,0,.58.06,4.5,4.5,0,0,0,.89-.1,2.65,2.65,0,0,0,.81-.33,1.82,1.82,0,0,0,.58-.62,1.86,1.86,0,0,0,.22-1V86.77Z"/><path d="M230.65,90.36a.82.82,0,0,1-.23.58.75.75,0,0,1-.57.24.76.76,0,0,1-.57-.24.78.78,0,0,1-.24-.58V83.09a.78.78,0,0,1,.24-.57.76.76,0,0,1,.57-.24.75.75,0,0,1,.57.24.81.81,0,0,1,.23.57v.3l.23-.25a3.25,3.25,0,0,1,.42-.38,3.15,3.15,0,0,1,.57-.33,1.53,1.53,0,0,1,.67-.15.78.78,0,0,1,.58.24.82.82,0,0,1,0,1.14.82.82,0,0,1-.58.23,1.55,1.55,0,0,0-.95.27,2,2,0,0,0-.58.64,2.46,2.46,0,0,0-.28.77,3.76,3.76,0,0,0-.08.66Z"/><path d="M235.77,90.36a.82.82,0,0,1-.23.58.82.82,0,0,1-1.39-.58V83.09a.81.81,0,0,1,1.39-.57.81.81,0,0,1,.23.57v.3s.11-.13.23-.25a3.25,3.25,0,0,1,.42-.38,3.15,3.15,0,0,1,.57-.33,1.53,1.53,0,0,1,.67-.15.76.76,0,0,1,.57.24.8.8,0,0,1,0,1.14.79.79,0,0,1-.57.23,1.55,1.55,0,0,0-.95.27,2,2,0,0,0-.58.64,2.77,2.77,0,0,0-.29.77,3.62,3.62,0,0,0-.07.66Z"/><path d="M132.88,55.65a1.67,1.67,0,0,1-.49,1.21,1.73,1.73,0,0,1-2.94-1.21v-19a2.16,2.16,0,0,1,.67-1.6,2.2,2.2,0,0,1,1.63-.67h8.34a6.39,6.39,0,0,1,2.56.51,6.58,6.58,0,0,1,2.1,1.41,6.64,6.64,0,0,1,1.41,2.09,6.68,6.68,0,0,1,0,5.12,6.56,6.56,0,0,1-3.51,3.51,6.39,6.39,0,0,1-2.56.51h-7.21Zm0-18.18v7h6.84a3.44,3.44,0,0,0,1.36-.27,3.64,3.64,0,0,0,1.12-.76,3.48,3.48,0,0,0,.76-3.85,3.51,3.51,0,0,0-.76-1.13,3.61,3.61,0,0,0-1.12-.75,3.28,3.28,0,0,0-1.36-.28Z"/><path d="M150.06,45.52a1.47,1.47,0,0,1-.63.16,1.73,1.73,0,0,1-1.07-.38,1.25,1.25,0,0,1-.5-1,1.81,1.81,0,0,1,.15-.64,5.56,5.56,0,0,1,.7-1.21,4.32,4.32,0,0,1,1.17-1.06,6.37,6.37,0,0,1,1.84-.74,11.12,11.12,0,0,1,2.66-.28,8.39,8.39,0,0,1,4.72,1.18A3.91,3.91,0,0,1,160.86,45V55.83a1.52,1.52,0,0,1-.43,1.09,1.44,1.44,0,0,1-1.08.45,1.48,1.48,0,0,1-1.09-.45,1.5,1.5,0,0,1-.45-1.09v-.47a5.45,5.45,0,0,1-2.52,1.6,10.73,10.73,0,0,1-3,.41,7.24,7.24,0,0,1-2-.28,5.36,5.36,0,0,1-1.8-.86,4.42,4.42,0,0,1-1.3-1.45,4.17,4.17,0,0,1-.49-2.09,4.57,4.57,0,0,1,.55-2.35,4.66,4.66,0,0,1,1.48-1.55,7.15,7.15,0,0,1,2.14-.93,16.7,16.7,0,0,1,2.55-.47,19.56,19.56,0,0,0,2.41-.39,4.56,4.56,0,0,0,1.31-.51,1.21,1.21,0,0,0,.54-.67,3.12,3.12,0,0,0,.1-.84,1.52,1.52,0,0,0-.32-1,2.53,2.53,0,0,0-.81-.67,3.84,3.84,0,0,0-1.11-.39,5.51,5.51,0,0,0-1.19-.14,6.45,6.45,0,0,0-1.69.18,3.42,3.42,0,0,0-1.05.46,2.4,2.4,0,0,0-.65.7,6.9,6.9,0,0,0-.45.85A1.19,1.19,0,0,1,150.06,45.52Zm7,3.7a6.94,6.94,0,0,1-1.29.27c-.5,0-1,.12-1.54.2s-1.06.17-1.56.29a5.71,5.71,0,0,0-1.37.51,2.79,2.79,0,0,0-1,.86,2.31,2.31,0,0,0-.37,1.34,1.94,1.94,0,0,0,.28,1.06,2.17,2.17,0,0,0,.71.67,3.31,3.31,0,0,0,1,.35,6.94,6.94,0,0,0,1.11.1,8.18,8.18,0,0,0,1.69-.19,4.79,4.79,0,0,0,1.52-.63,3.34,3.34,0,0,0,1.11-1.16,3.58,3.58,0,0,0,.42-1.8V49Z"/><path d="M173.27,40.83a5.52,5.52,0,0,1,1.79.92,4.58,4.58,0,0,1,1.25,1.51,4.52,4.52,0,0,1,.47,2.1V55.83a1.55,1.55,0,0,1-1.55,1.54,1.44,1.44,0,0,1-1.07-.45,1.53,1.53,0,0,1-.44-1.09V45.7a2.21,2.21,0,0,0-.3-1.14,2.92,2.92,0,0,0-.79-.85,3.84,3.84,0,0,0-1.08-.51,4.36,4.36,0,0,0-1.17-.17,4.47,4.47,0,0,0-1.75.33,3.91,3.91,0,0,0-1.32.92,4,4,0,0,0-.83,1.38,4.87,4.87,0,0,0-.29,1.73v8.44a1.53,1.53,0,0,1-.44,1.09,1.44,1.44,0,0,1-1.08.45,1.54,1.54,0,0,1-1.54-1.54V42.07a1.48,1.48,0,0,1,.45-1.09,1.5,1.5,0,0,1,1.09-.45,1.44,1.44,0,0,1,1.08.45,1.51,1.51,0,0,1,.44,1.09v.52l.71-.62a5.59,5.59,0,0,1,1-.69,7.68,7.68,0,0,1,1.41-.54,7.36,7.36,0,0,1,1.85-.21A7.22,7.22,0,0,1,173.27,40.83Z"/><path d="M183.34,57a7.33,7.33,0,0,1-2.55-1.67,7.76,7.76,0,0,1-1.69-2.69,11.32,11.32,0,0,1,0-7.33,7.85,7.85,0,0,1,1.69-2.71,7.25,7.25,0,0,1,2.55-1.69,8.69,8.69,0,0,1,3.18-.58,8.78,8.78,0,0,1,3.19.58,7.3,7.3,0,0,1,2.54,1.69,7.85,7.85,0,0,1,1.69,2.71,11.32,11.32,0,0,1,0,7.33,7.76,7.76,0,0,1-1.69,2.69A7.39,7.39,0,0,1,189.71,57a8.57,8.57,0,0,1-3.19.58A8.48,8.48,0,0,1,183.34,57Zm7.78-10.79a5.44,5.44,0,0,0-1-1.91,4,4,0,0,0-1.57-1.1,5.54,5.54,0,0,0-4,0,4,4,0,0,0-1.57,1.1,5.44,5.44,0,0,0-1,1.91,9,9,0,0,0-.37,2.76,8.88,8.88,0,0,0,.37,2.75,5.34,5.34,0,0,0,1,1.89,4,4,0,0,0,1.57,1.11,5.68,5.68,0,0,0,4,0,4,4,0,0,0,1.57-1.11,5.34,5.34,0,0,0,1-1.89,8.88,8.88,0,0,0,.37-2.75A9,9,0,0,0,191.12,46.2Z"/><path d="M199.52,42.33a12.94,12.94,0,0,1,1.09-.84,5.15,5.15,0,0,1,2.29-.88,13.81,13.81,0,0,1,1.54-.08,6.06,6.06,0,0,1,2.69.61,6.56,6.56,0,0,1,2.21,1.73,8.65,8.65,0,0,1,1.5,2.67,10.14,10.14,0,0,1,.55,3.42,11.15,11.15,0,0,1-.49,3.41A8.15,8.15,0,0,1,209.49,55a6.58,6.58,0,0,1-2.2,1.73,7.21,7.21,0,0,1-4.67.39,5.58,5.58,0,0,1-2.33-1.25l-.77-.74V62a1.52,1.52,0,0,1-.43,1.09,1.44,1.44,0,0,1-1.08.45,1.48,1.48,0,0,1-1.09-.45,1.5,1.5,0,0,1-.45-1.09V42.07A1.54,1.54,0,0,1,198,40.53a1.44,1.44,0,0,1,1.08.45,1.5,1.5,0,0,1,.43,1.09Zm6.36,12a4.54,4.54,0,0,0,1.45-1.31,5.93,5.93,0,0,0,.91-1.89,8.33,8.33,0,0,0,0-4.43,6.14,6.14,0,0,0-.91-1.89,4.49,4.49,0,0,0-1.45-1.33,3.81,3.81,0,0,0-1.94-.49,3.85,3.85,0,0,0-2,.49,4.45,4.45,0,0,0-1.44,1.33,6.34,6.34,0,0,0-.89,1.89,8.33,8.33,0,0,0,0,4.43,6.11,6.11,0,0,0,.89,1.89A4.5,4.5,0,0,0,202,54.37a3.86,3.86,0,0,0,2,.5A3.81,3.81,0,0,0,205.88,54.37Z"/><path d="M217.67,40.9h1.6a1.31,1.31,0,0,1,.95.4,1.35,1.35,0,0,1,0,1.9,1.29,1.29,0,0,1-.95.38h-1.6V55.83a1.5,1.5,0,0,1-.45,1.09,1.48,1.48,0,0,1-1.09.45,1.44,1.44,0,0,1-1.07-.45,1.53,1.53,0,0,1-.44-1.09V43.58h-1.08a1.34,1.34,0,0,1-.94-2.28,1.29,1.29,0,0,1,.94-.4h1.08V37.27a1.47,1.47,0,0,1,.44-1.08,1.46,1.46,0,0,1,1.07-.43,1.5,1.5,0,0,1,1.09.43,1.44,1.44,0,0,1,.45,1.08Z"/><path d="M226.07,57a7.33,7.33,0,0,1-2.55-1.67,7.76,7.76,0,0,1-1.69-2.69,11.32,11.32,0,0,1,0-7.33,7.85,7.85,0,0,1,1.69-2.71,7.25,7.25,0,0,1,2.55-1.69,9,9,0,0,1,6.37,0A7.21,7.21,0,0,1,235,42.59a7.85,7.85,0,0,1,1.69,2.71,11.32,11.32,0,0,1,0,7.33A7.76,7.76,0,0,1,235,55.32,7.29,7.29,0,0,1,232.44,57a9,9,0,0,1-6.37,0Zm7.78-10.79a5.43,5.43,0,0,0-1-1.91,4.07,4.07,0,0,0-1.58-1.1,5.54,5.54,0,0,0-4,0,4,4,0,0,0-1.57,1.1,5.27,5.27,0,0,0-1,1.91,8.72,8.72,0,0,0-.38,2.76,8.57,8.57,0,0,0,.38,2.75,5.18,5.18,0,0,0,1,1.89,4,4,0,0,0,1.57,1.11,5.68,5.68,0,0,0,4,0,4,4,0,0,0,1.58-1.11,5.33,5.33,0,0,0,1-1.89,8.86,8.86,0,0,0,.38-2.75A9,9,0,0,0,233.85,46.2Z"/></svg>